<?xml version="1.0" encoding="utf-8"?>
<!-- Generator: Adobe Illustrator 27.5.0, SVG Export Plug-In . SVG Version: 6.00 Build 0)  -->
<svg version="1.1" id="Layer_1" xmlns="http://www.w3.org/2000/svg" xmlns:xlink="http://www.w3.org/1999/xlink" x="0px" y="0px"
	 viewBox="0 0 450 450" style="enable-background:new 0 0 450 450;" xml:space="preserve">
<g>
	<path style="fill:#C9D6F2;" d="M79.423,341.029c0,0-31.442-22.093-16.986-49.86c14.459-27.767,43.374-70.399,28.904-92.137
		c-14.445-21.731-15.918-91.355,67.215-102.028c66.306-8.507,86.459,26.512,96.736,50.412c13.555,31.527,1.441,89.082,64.837,96.675
		c63.412,7.59,99.632,38.944,54.212,90.046C354.491,356.469,79.423,341.029,79.423,341.029z"/>
	<g>
		<path style="fill:#EBF2FF;" d="M192.952,323.653c-46.791,10.226-84.9-3.973-71.895-28.133c12.997-24.16,5.032-27.206-4.994-34.806
			c-10.026-7.597-32.552-28.759-10.608-52.002c21.971-23.23,5.282-29.97-1.577-43.641c-20.036-39.881,61.223-56.255,39.235-19.551
			c-16.506,27.547-15.636,48.642,4.876,62.658c20.529,14.019,24.624,21.412,23.717,38.737c-0.91,17.325-7.996,54.148,12.922,52.615
			C205.53,297.997,216.95,318.405,192.952,323.653z"/>
		<path style="fill:#CBDBF4;" d="M107.958,159.634c-2.173-4.128-2.683-24.37,16.956-23.321c11.952,0.64,5.746,16.963,3.035,29.523
			c-2.703,12.561-0.856,32.281,4.139,40.403c9.227,14.98,7.255,21.284-4.169,34.136c0,0-5.932,9.545,5.011,19.788
			c10.94,10.242,6.713,38.45,19.423,43.021c12.71,4.568,19.89,14.314,11.18,15.22c-8.69,0.914-44.737,4.416-35.249-19.318
			c13.83-34.552-13.132-44.795-19.849-52.462c-6.159-7.028-11.427-22.732,6.436-42.426
			C128.691,188.954,114.621,172.35,107.958,159.634z"/>
	</g>
	<g>
		<g>
			<path style="fill:#7585F8;" d="M156.576,339.431l-0.717,3.167c-0.68-0.172-16.976-4.27-34.538-15.538
				c-23.378-15.01-37.587-35.614-41.065-59.629l3.028-0.521C91.368,322.678,155.924,339.266,156.576,339.431z"/>
		</g>
		<g>
			<path style="fill:#7585F8;" d="M82.458,270.636c0,0-16.98-9.008-9.945-29.757C72.513,240.879,87.581,253.121,82.458,270.636z"/>
		</g>
		<g>
			<path style="fill:#7585F8;" d="M87.896,287.599c0,0-23.149,7.735-32.562-18.398C55.334,269.201,67.681,264.667,87.896,287.599z"
				/>
		</g>
		<g>
			<path style="fill:#7585F8;" d="M87.107,287.703c0,0,21.494-11.988,10.781-37.533C97.888,250.171,86.153,256.251,87.107,287.703z"
				/>
		</g>
		<g>
			<path style="fill:#7585F8;" d="M99.942,307.048c0,0-22.316,10.206-34.22-14.74C65.722,292.309,77.565,286.452,99.942,307.048z"/>
		</g>
		<g>
			<path style="fill:#7585F8;" d="M99.157,307.228c0,0,20.231-14.246,7.072-38.484C106.229,268.744,95.134,276.077,99.157,307.228z"
				/>
		</g>
		<g>
			<path style="fill:#7585F8;" d="M119.155,323.947c0,0-20.37,14.066-36.146-8.317C83.01,315.63,93.736,307.712,119.155,323.947z"/>
		</g>
		<g>
			<path style="fill:#7585F8;" d="M118.401,324.265c0,0,17.643-17.687,0.751-39.154
				C119.152,285.112,109.396,294.336,118.401,324.265z"/>
		</g>
		<g>
			<path style="fill:#7585F8;" d="M138.903,334.549c0,0-16.208,19.166-37.012,1.939
				C101.891,336.487,110.327,325.913,138.903,334.549z"/>
		</g>
		<g>
			<path style="fill:#7585F8;" d="M138.273,335.063c0,0,12.723-21.89-8.923-37.915C129.35,297.148,122.19,308.71,138.273,335.063z"
				/>
		</g>
	</g>
	<g>
		<path style="fill:#7585F8;" d="M277.199,339.503c44.808,12.229,82.409,0.365,71.019-23.68
			c-11.393-24.038-3.529-26.59,6.561-33.456c10.094-6.862,32.944-26.234,12.845-49.826c-20.113-23.595-3.624-29.29,3.695-42.189
			c21.368-37.631-56.503-57.518-37.029-20.878c14.622,27.497,12.737,47.874-7.837,60.431
			c-20.563,12.564-24.888,19.521-24.874,36.342c0.017,16.824,5.059,52.831-15.122,50.314
			C266.286,314.036,254.219,333.229,277.199,339.503z"/>
		<path style="opacity:0.2;fill:#F6F5F7;" d="M367.63,184.884c2.315-3.895,3.81-23.467-15.261-23.429
			c-11.6,0.027-6.395,16.144-4.399,28.444c1.993,12.296-0.768,31.3-6.01,38.92c-9.678,14.046-8.077,20.248,2.348,33.259
			c0,0,5.262,9.546-5.847,18.919c-11.095,9.376-8.398,36.904-20.929,40.7c-12.54,3.79-19.978,12.875-11.593,14.185
			c8.382,1.313,43.123,6.497,35.093-16.959c-11.674-34.146,14.939-42.73,21.829-49.823c6.314-6.5,12.188-21.447-4.128-41.404
			C346.106,212.249,360.562,196.866,367.63,184.884z"/>
	</g>
	<g>
		<g>
			<path style="fill:#EBF2FF;" d="M270.675,338.714l-0.68-4.152c65.943-10.777,94.468-62.417,94.756-62.952l3.706,2.003
				C368.165,274.138,338.726,327.598,270.675,338.714z"/>
		</g>
		<g>
			<path style="fill:#EBF2FF;" d="M364.476,275.143c0,0,8.612-22.269,19.843-15.159
				C389.093,262.999,386.515,273.806,364.476,275.143z"/>
		</g>
		<g>
			<path style="fill:#EBF2FF;" d="M359.479,282.425c0,0,21.95-12.686,24.241,0.135C384.685,288.032,375.064,295.195,359.479,282.425
				z"/>
		</g>
		<g>
			<path style="fill:#EBF2FF;" d="M359.523,284.79c0,0,13.437-20.499-0.396-22.475C353.232,261.459,345.595,270.453,359.523,284.79z
				"/>
		</g>
		<g>
			<path style="fill:#EBF2FF;" d="M344.901,299.648c0,0,14.466-19.998,0.799-22.604C339.88,275.928,331.833,284.594,344.901,299.648
				z"/>
		</g>
		<g>
			<path style="fill:#EBF2FF;" d="M332.087,310.97c0,0,14.361-20.019,0.69-22.597C326.95,287.26,318.931,295.963,332.087,310.97z"/>
		</g>
		<g>
			<path style="fill:#EBF2FF;" d="M314.173,322.113c0,0,17.728-17.684,5.048-22.543
				C313.811,297.503,304.404,304.886,314.173,322.113z"/>
		</g>
		<g>
			<path style="fill:#EBF2FF;" d="M298.658,329.182c0,0,17.224-18.113,4.335-22.604
				C297.528,304.683,288.307,312.287,298.658,329.182z"/>
		</g>
		<g>
			<path style="fill:#EBF2FF;" d="M277.415,335.276c0,0,21.463-13.521,10.831-21.291
				C283.709,310.669,272.85,315.836,277.415,335.276z"/>
		</g>
		<g>
			<path style="fill:#EBF2FF;" d="M348.749,295.838c0,0,21.988-12.693,24.255,0.149
				C373.971,301.445,364.372,308.592,348.749,295.838z"/>
		</g>
		<g>
			<path style="fill:#EBF2FF;" d="M335.633,307.668c0,0,21.985-12.666,24.251,0.162
				C360.863,313.285,351.242,320.442,335.633,307.668z"/>
		</g>
		<g>
			<path style="fill:#EBF2FF;" d="M321.228,317.295c0,0,23.974-7.989,22.959,5.302C343.778,328.255,332.872,333.368,321.228,317.295
				z"/>
		</g>
		<g>
			<path style="fill:#EBF2FF;" d="M304.201,326.316c0,0,24.485-5.695,21.974,7.576C325.103,339.54,313.835,343.617,304.201,326.316z
				"/>
		</g>
		<g>
			<path style="fill:#EBF2FF;" d="M286.152,332.644c0,0,24.712-2.45,20.201,10.584C304.401,348.764,292.798,351.349,286.152,332.644
				z"/>
		</g>
	</g>
	<path style="fill:#ACBFE2;" d="M373.237,344.815c0,5.238-67.48,9.485-150.728,9.485c-83.242,0-150.727-4.247-150.727-9.485
		c0-5.238,67.486-9.482,150.727-9.482C305.758,335.334,373.237,339.577,373.237,344.815z"/>
	<g>
		<path style="fill:#D086E5;" d="M336.52,238.053c0,58.337-47.292,105.625-105.628,105.625c-58.34,0-105.629-47.288-105.629-105.625
			c0-58.34,47.289-105.632,105.629-105.632C289.228,132.421,336.52,179.713,336.52,238.053z"/>
		<g>
			<path style="fill:#F6F5F7;" d="M240.315,277.312c3.066,4.994-0.027,12.48-6.923,16.713c-6.886,4.23-14.966,3.61-18.032-1.387
				l-35.266-57.437c-3.069-4.998,0.024-12.476,6.923-16.709c6.886-4.233,14.966-3.61,18.032,1.384L240.315,277.312z"/>
			<path style="fill:#F6F5F7;" d="M239.029,289.849c-4.23,6.886-13.247,9.048-20.133,4.818c-6.9-4.23-9.052-13.247-4.822-20.144
				l48.601-79.208c4.23-6.893,13.247-9.052,20.143-4.822c6.889,4.23,9.052,13.244,4.822,20.137L239.029,289.849z"/>
		</g>
	</g>
	<g>
		<path style="fill:#E28C71;" d="M153.369,223.411c1.465-0.677,6.277-1.052,8.788,2.748c3.387,5.086,4.554,17.474,12.107,21.206
			c7.577,3.722,12.297,0.545,15.735-1.184c3.434-1.712,4.003-4.023,6.131-4.801c2.105-0.775,2.927,1.78-1.926,5.861
			c-2.342,1.949-12.642,12.977-22.468,10.222C158.84,253.829,144.703,227.367,153.369,223.411z"/>
		<g>
			<g>
				<g>
					<g>
						<g>
							<path style="fill:#F27851;" d="M164.586,303.367c-2.115,12.916-3.821,40.311,1.848,40.095c5.685-0.22,8.723-2.308,5.39-3.106
								c-3.353-0.802-3.471-1.181-3.438-2.206c0.26-6.463,5.252-18.763,7.136-28.177
								C177.715,299.049,166.454,292.076,164.586,303.367z"/>
						</g>
					</g>
					<g>
						<path style="fill:#6E86CC;" d="M163.852,340.866c0,0,5.086,1.841,7.972-0.511c0,0,5.621,0.471,2.21,2.183
							C170.643,344.257,163.967,345.918,163.852,340.866z"/>
					</g>
				</g>
				<path style="fill:#C92F3B;" d="M143.779,250.258c0,0,29.239,20.529,33.449,31.026c3.776,9.444-4.991,47.481-4.991,47.481
					s-6.162,2.457-11.82-1.012l0.741-29.581l-24.678-22.57L143.779,250.258z"/>
			</g>
		</g>
		<g>
			<path style="fill:#F27851;" d="M124.918,304.971c-10.801,8.917-31.466,29.784-26.732,33.605c4.73,3.807,8.659,4.27,6.52,1.296
				c-2.125-3.011-1.966-3.421-1.208-4.206c4.764-5.018,17.423-11.427,25.554-17.673C138.517,310.75,134.355,297.188,124.918,304.971
				z"/>
			<path style="fill:#6E86CC;" d="M97.922,334.67c0,0,2.809,5.055,6.784,5.201c0,0,4.189,4.318,0.251,3.302
				C101.018,342.159,94.484,338.816,97.922,334.67z"/>
		</g>
		<path style="fill:#E03D51;" d="M139.448,250.113c0,0,15.173,34.562,11.17,45.972c-3.59,10.273-37.411,34.738-37.411,34.738
			s-6.7-2.362-8.822-9.14l21.416-23.308c0,0-8.561-26.942-4.358-36.931c0.149-0.335-0.585,2.379-0.585,2.379L139.448,250.113z"/>
		<path style="fill:#FCDCDA;" d="M157.697,265.408c5.604-7.394,8.771-18.854,8.991-27.751c0.308-12.337-10.595-15.521-17.521-16.175
			c-6.93-0.667-18.256-2.01-17.792,13.366c0.308,10.73-3.587,16.334-9.028,25.406c-0.146,0.24-0.294,0.436-0.44,0.663
			c-0.024-0.004-0.034-0.031-0.034-0.031c0.007,0.017,0.01,0.027,0.034,0.031C114.235,270.338,151.332,273.793,157.697,265.408z"/>
		<path style="fill:#EFBEBD;" d="M122.346,260.254c-0.146,0.24-0.294,0.436-0.44,0.663c-0.024-0.004-0.034-0.031-0.034-0.031
			c0.007,0.017,0.01,0.027,0.034,0.031c-5.939,7.285,14.902,10.987,27.591,8.435c1.969-2.947-7.566-3.732-11.096-6.595
			c-8.138-6.598,20.882-7.16,15.883-9.586c-5.397-2.599-13.43-1.563-9.894-9.464c3.523-7.915,0.491-17.369-2.856-20.57
			c-3.489-3.346-9.329,0.576-9.965,7.857c-0.159,1.161-0.254,2.42-0.196,3.854C131.682,245.579,127.787,251.182,122.346,260.254z"/>
		<path style="fill:#E67052;" d="M150.151,212.438c0,0,1.529,5.85-2.788,8.009c-4.426,2.199,9.153,13.017,9.366,9.809
			c0.278-4.138-1.357-6.926,1.495-11.207L150.151,212.438z"/>
		<path style="fill:#EE9D7F;" d="M160.596,203.85c2.852,3.888,3.898,18.865-0.305,21.345c-1.841,1.062-8.043-1.685-10.98-8.733
			c-1.222-2.886-2.399-8.111,1.11-12.483C152.012,201.989,157.281,199.315,160.596,203.85z"/>
		<path style="fill:#062440;" d="M148.249,203.772c-3.705,4.656-2.084,9.153-1.821,9.979c0.965,3.018,3.418,5.83,4.166,4.957
			c0.89-1.042-2.48-2.132-0.934-5.12c1.553-2.995-0.423-4.05,0.606-6.727c1.001-2.667,2.974-1.753,9.217-1.557
			c2.558,0.081,3.201-0.789,3.11-1.851C159.426,198.913,152.147,198.872,148.249,203.772z"/>
		<path style="fill:#353A66;" d="M163.101,207.092c1.522-3.614,6.947-2.748,5.218-5.303c-1.157-1.712-1.171-0.423-14.093-3.059
			c-6.033-1.228-7.221,1.347-8.372,4.747c-1.066,3.14-0.734,10.855,3.398,15.4c4.118,4.534-0.129-3.022,1.451-6.439
			c1.58-3.414,2.623-1.969,4.896-1.404C157.873,211.592,160.647,212.912,163.101,207.092z"/>
		<g>
			<polygon style="fill:#494C7F;" points="120.522,270.49 131.469,286.184 219.572,224.674 230.891,205.098 208.609,208.983 			"/>
			
				<rect x="119.355" y="247.67" transform="matrix(0.82 -0.5724 0.5724 0.82 -113.0439 144.4138)" style="fill:#373C66;" width="107.449" height="8.527"/>
			<polygon style="fill:#1F1440;" points="230.891,205.098 227.829,210.401 224.875,206.154 			"/>
		</g>
		<path style="fill:#E28C71;" d="M138.994,222.193c1.641,0.132,4.501,2.609,4.869,7.211c0.518,6.159-2.971,17.237,1.892,24.242
			c4.883,7.018,10.625,6.517,14.503,6.68c3.902,0.169,5.533-1.594,7.776-1.255c2.254,0.342,1.726,3.018-4.578,4.25
			c-3.015,0.586-17.552,5.292-24.901-1.983C128.924,251.808,129.391,221.432,138.994,222.193z"/>
	</g>
</g>
</svg>
